<?xml version="1.0" encoding="utf-8"?>
<!-- Generator: Adobe Illustrator 25.4.1, SVG Export Plug-In . SVG Version: 6.00 Build 0)  -->
<svg version="1.1" id="Capa_1" xmlns="http://www.w3.org/2000/svg" xmlns:xlink="http://www.w3.org/1999/xlink" x="0px" y="0px"
	 viewBox="0 0 172.9 209" style="enable-background:new 0 0 172.9 209;" xml:space="preserve">
<style type="text/css">
	.st0{fill:#FFFFFF;}
</style>
<path class="st0" d="M167.8,186l-12-131.5c-0.3-3.6-3.4-6.3-7-6.3h-24.7v-11C124.1,16.7,107.2,0,86.5,0C65.7,0,48.8,16.7,48.8,37.1
	v11H24.1c-3.7,0-6.7,2.8-7,6.3l-12,132c-0.2,1.9,0.5,3.9,1.8,5.3c1.3,1.4,3.2,2.3,5.2,2.3h148.8c0,0,0,0,0,0c3.9,0,7.1-3.1,7.1-7
	C167.9,186.7,167.9,186.4,167.8,186z M63,37.1c0-12.8,10.6-23.2,23.5-23.2c13,0,23.5,10.4,23.5,23.2v11H63V37.1z M19.8,180.2
	L30.6,62h18.3v12.5c0,3.8,3.2,7,7.1,7s7.1-3.1,7.1-7V62h47v12.5c0,3.8,3.2,7,7.1,7c3.9,0,7.1-3.1,7.1-7V62h18.2l10.8,118.1
	L19.8,180.2L19.8,180.2z"/>
</svg>
